<?xml version="1.0" encoding="UTF-8"?>
<!DOCTYPE svg PUBLIC "-//W3C//DTD SVG 1.1//EN" "http://www.w3.org/Graphics/SVG/1.1/DTD/svg11.dtd">
<svg xmlns="http://www.w3.org/2000/svg" version="1.1" width="3132px" height="798px" style="shape-rendering:geometricPrecision; text-rendering:geometricPrecision; image-rendering:optimizeQuality; fill-rule:evenodd; clip-rule:evenodd" xmlns:xlink="http://www.w3.org/1999/xlink">
<g><path style="opacity:0.887" fill="#a60431" d="M 294.5,75.5 C 295.721,74.5354 297.054,74.702 298.5,76C 311.076,84.8725 323.909,93.3725 337,101.5C 350.091,93.3725 362.924,84.8725 375.5,76C 376.759,75.0181 378.092,74.6848 379.5,75C 365.692,93.8041 351.525,112.304 337,130.5C 322.612,112.286 308.445,93.9527 294.5,75.5 Z"/></g>
<g><path style="opacity:0.882" fill="#a60431" d="M 736.5,75.5 C 737.251,74.4265 738.251,74.2599 739.5,75C 752.662,84.0816 765.995,92.915 779.5,101.5C 792.698,92.4704 806.031,83.637 819.5,75C 820.5,74.3333 821.5,74.3333 822.5,75C 808.035,93.4484 793.701,111.948 779.5,130.5C 764.917,112.318 750.583,93.9844 736.5,75.5 Z"/></g>
<g><path style="opacity:0.94" fill="#a60431" d="M 1386.5,99.5 C 1388.31,99.4914 1389.98,99.9914 1391.5,101C 1430.3,141.471 1469.47,181.638 1509,221.5C 1509.09,187.491 1508.42,153.491 1507,119.5C 1506.56,114.427 1504.06,110.927 1499.5,109C 1495.5,108.667 1491.5,108.333 1487.5,108C 1485.41,107.047 1485.07,105.714 1486.5,104C 1505.5,103.5 1524.5,103.333 1543.5,103.5C 1543.76,104.978 1543.43,106.311 1542.5,107.5C 1532.44,106.262 1526.94,110.595 1526,120.5C 1525.05,168.168 1524.05,215.834 1523,263.5C 1522.63,264.416 1522.13,265.25 1521.5,266C 1518.98,266.257 1516.65,265.59 1514.5,264C 1475.3,226.471 1437.14,187.971 1400,148.5C 1399.52,182.22 1400.52,215.887 1403,249.5C 1403.61,252.548 1405.11,255.048 1407.5,257C 1412.08,258.145 1416.75,258.811 1421.5,259C 1423.59,259.953 1423.93,261.286 1422.5,263C 1403.17,263.667 1383.83,263.667 1364.5,263C 1363.07,261.286 1363.41,259.953 1365.5,259C 1369.92,258.792 1374.25,258.126 1378.5,257C 1380.6,254.958 1381.77,252.458 1382,249.5C 1383.5,201.516 1384.5,153.516 1385,105.5C 1385.32,103.414 1385.82,101.414 1386.5,99.5 Z"/></g>
<g><path style="opacity:0.931" fill="#a60431" d="M 2359.5,100.5 C 2363.51,101.222 2367.51,102.055 2371.5,103C 2410.83,103.667 2450.17,103.667 2489.5,103C 2491.7,102.627 2493.86,102.127 2496,101.5C 2496.77,101.645 2497.44,101.978 2498,102.5C 2498.67,112.5 2498.67,122.5 2498,132.5C 2496.33,136.5 2494.67,136.5 2493,132.5C 2493.18,126.694 2490.68,122.527 2485.5,120C 2481.01,118.189 2476.35,117.189 2471.5,117C 2461.51,116.5 2451.51,116.334 2441.5,116.5C 2441.07,160.853 2441.57,205.186 2443,249.5C 2443.61,252.548 2445.11,255.048 2447.5,257C 2453.45,258.163 2459.45,258.996 2465.5,259.5C 2465.67,260.822 2465.34,261.989 2464.5,263C 2441.59,263.827 2418.76,263.66 2396,262.5C 2395.34,260.892 2395.84,259.725 2397.5,259C 2401.86,258.89 2406.02,258.057 2410,256.5C 2411.83,252.719 2412.83,248.719 2413,244.5C 2413.5,201.835 2413.67,159.168 2413.5,116.5C 2398.07,115.992 2382.74,116.825 2367.5,119C 2365.38,120.122 2363.54,121.622 2362,123.5C 2360.48,127.21 2358.48,130.544 2356,133.5C 2354.43,132.286 2353.6,130.619 2353.5,128.5C 2354.87,118.987 2356.87,109.654 2359.5,100.5 Z"/></g>
<g><path style="opacity:0.933" fill="#a60431" d="M 2645.5,100.5 C 2649.81,101.313 2654.14,102.147 2658.5,103C 2697.83,103.667 2737.17,103.667 2776.5,103C 2778.7,102.627 2780.86,102.127 2783,101.5C 2783.95,101.905 2784.61,102.572 2785,103.5C 2784.94,113.822 2784.61,124.156 2784,134.5C 2782.67,135.833 2781.33,135.833 2780,134.5C 2780.33,126.636 2776.83,121.47 2769.5,119C 2765.89,118.055 2762.22,117.388 2758.5,117C 2748.51,116.5 2738.51,116.334 2728.5,116.5C 2728.33,159.835 2728.5,203.168 2729,246.5C 2729.15,250.634 2730.65,254.134 2733.5,257C 2738.77,258.106 2744.1,258.773 2749.5,259C 2751.59,259.953 2751.93,261.286 2750.5,263C 2727.83,263.833 2705.16,263.666 2682.5,262.5C 2681.43,260.675 2682.1,259.508 2684.5,259C 2693.12,260.457 2697.96,256.957 2699,248.5C 2700.41,204.517 2700.91,160.517 2700.5,116.5C 2686.14,116.259 2671.81,116.759 2657.5,118C 2650.27,119.598 2646.11,124.098 2645,131.5C 2642.21,134.273 2640.38,133.607 2639.5,129.5C 2641.24,119.777 2643.24,110.11 2645.5,100.5 Z"/></g>
<g><path style="opacity:0.934" fill="#a60431" d="M 1919.5,101.5 C 1920.83,101.5 1922.17,101.5 1923.5,101.5C 1922.42,111.138 1921.59,120.805 1921,130.5C 1920.73,134.13 1919.06,135.13 1916,133.5C 1916.73,126.642 1914.23,121.475 1908.5,118C 1895.59,115.967 1882.59,115.134 1869.5,115.5C 1869.5,134.5 1869.5,153.5 1869.5,172.5C 1880.17,172.667 1890.84,172.5 1901.5,172C 1905.25,171.74 1908.92,171.073 1912.5,170C 1914.39,166.965 1916.89,165.798 1920,166.5C 1919.24,178.379 1918.07,190.212 1916.5,202C 1915.22,202.684 1914.05,202.517 1913,201.5C 1912.74,197.75 1912.07,194.084 1911,190.5C 1910.17,188.333 1908.67,186.833 1906.5,186C 1897.07,184.67 1887.57,183.836 1878,183.5C 1875.25,183.525 1872.58,183.859 1870,184.5C 1869.33,203.167 1869.33,221.833 1870,240.5C 1870.31,244.965 1872.48,248.132 1876.5,250C 1887.11,251.569 1897.77,251.903 1908.5,251C 1918.64,248.586 1923.98,242.086 1924.5,231.5C 1925.36,230.417 1926.36,230.251 1927.5,231C 1928.7,241.26 1927.87,251.427 1925,261.5C 1924.1,262.701 1922.93,263.535 1921.5,264C 1915.83,264.167 1910.17,264.333 1904.5,264.5C 1877.51,263.677 1850.51,263.344 1823.5,263.5C 1823.24,262.022 1823.57,260.689 1824.5,259.5C 1828.56,258.92 1832.56,258.087 1836.5,257C 1838.6,254.958 1839.77,252.458 1840,249.5C 1841.11,226.19 1841.61,202.856 1841.5,179.5C 1841.33,159.5 1841.17,139.5 1841,119.5C 1841.09,113.596 1838.26,110.096 1832.5,109C 1828.83,108.667 1825.17,108.333 1821.5,108C 1821,107.5 1820.5,107 1820,106.5C 1815.64,108.03 1811.14,109.197 1806.5,110C 1804.67,111.833 1802.83,113.667 1801,115.5C 1777.95,165.332 1755.28,215.332 1733,265.5C 1730.41,266.982 1728.07,266.648 1726,264.5C 1705.19,215.085 1684.19,165.752 1663,116.5C 1657.28,110.147 1650.12,107.314 1641.5,108C 1640.17,106.667 1640.17,105.333 1641.5,104C 1663.83,103.5 1686.16,103.333 1708.5,103.5C 1708.71,105.144 1708.38,106.644 1707.5,108C 1704.5,108.333 1701.5,108.667 1698.5,109C 1695.71,111.167 1694.88,114.001 1696,117.5C 1709.27,153.323 1722.94,188.99 1737,224.5C 1751.73,188.314 1766.06,151.981 1780,115.5C 1780.74,113.559 1780.58,111.726 1779.5,110C 1775.62,108.81 1771.62,108.143 1767.5,108C 1765.41,107.047 1765.07,105.714 1766.5,104C 1815.75,104.051 1865.09,103.717 1914.5,103C 1916.38,102.802 1918.05,102.302 1919.5,101.5 Z"/></g>
<g><path style="opacity:0.939" fill="#a60431" d="M 2126.5,101.5 C 2128.85,101.838 2131.19,102.338 2133.5,103C 2170.53,103.185 2207.53,103.685 2244.5,104.5C 2244.63,106.655 2244.13,108.655 2243,110.5C 2213.29,157.541 2182.79,204.041 2151.5,250C 2171.83,250.667 2192.17,250.667 2212.5,250C 2228.4,249.935 2237.73,242.101 2240.5,226.5C 2241.69,225.571 2243.02,225.238 2244.5,225.5C 2245.27,238.24 2243.43,250.573 2239,262.5C 2238.25,263.126 2237.42,263.626 2236.5,264C 2186.5,263.833 2136.5,263.5 2086.5,263C 2076.76,260.877 2068.59,256.044 2062,248.5C 2049.5,232 2037,215.5 2024.5,199C 2017.52,197.941 2010.52,197.607 2003.5,198C 2002.17,215.119 2002.34,232.285 2004,249.5C 2004.61,252.548 2006.11,255.048 2008.5,257C 2013.42,258.161 2018.42,258.827 2023.5,259C 2024.38,260.356 2024.71,261.856 2024.5,263.5C 2002.5,263.5 1980.5,263.5 1958.5,263.5C 1958.24,262.022 1958.57,260.689 1959.5,259.5C 1963.56,258.92 1967.56,258.087 1971.5,257C 1973.44,254.53 1974.6,251.696 1975,248.5C 1976.6,206.185 1976.93,163.852 1976,121.5C 1976.59,114.841 1973.75,110.675 1967.5,109C 1963.83,108.667 1960.17,108.333 1956.5,108C 1954.61,106.921 1954.27,105.587 1955.5,104C 1981.5,103.333 2007.5,103.333 2033.5,104C 2061.76,106.247 2074.92,121.414 2073,149.5C 2070.89,160.712 2065.89,170.378 2058,178.5C 2053.84,181.83 2050,185.496 2046.5,189.5C 2060.1,207.269 2074.27,224.602 2089,241.5C 2096.24,249.447 2104.91,255.114 2115,258.5C 2145.96,211.419 2176.79,164.252 2207.5,117C 2188.5,116.333 2169.5,116.333 2150.5,117C 2136.01,117.825 2127.51,125.325 2125,139.5C 2123.64,140.38 2122.14,140.714 2120.5,140.5C 2120.68,127.105 2122.68,114.105 2126.5,101.5 Z M 2004.5,114.5 C 2031.97,112.304 2046.3,124.97 2047.5,152.5C 2046.26,182.948 2031.43,193.282 2003,183.5C 2002.33,161.167 2002.33,138.833 2003,116.5C 2003.72,115.956 2004.22,115.289 2004.5,114.5 Z"/></g>
<g><path style="opacity:0.945" fill="#a60431" d="M 2615.5,101.5 C 2617.63,101.147 2618.97,101.98 2619.5,104C 2617.93,113.772 2616.76,123.605 2616,133.5C 2614.64,134.38 2613.14,134.714 2611.5,134.5C 2611.95,129.117 2610.61,124.283 2607.5,120C 2606.17,119.333 2604.83,118.667 2603.5,118C 2594.58,116.451 2585.58,115.618 2576.5,115.5C 2572.4,115.542 2568.57,116.208 2565,117.5C 2564.18,135.544 2564.35,153.544 2565.5,171.5C 2576.15,172.666 2586.82,172.832 2597.5,172C 2603.97,172.459 2609.3,170.292 2613.5,165.5C 2614.09,165.709 2614.59,166.043 2615,166.5C 2614.34,177.804 2613.67,189.138 2613,200.5C 2611.92,202.394 2610.59,202.727 2609,201.5C 2608.38,197.388 2607.38,193.388 2606,189.5C 2604.79,187.951 2603.29,186.785 2601.5,186C 2589.57,183.994 2577.57,183.494 2565.5,184.5C 2564.35,201.456 2564.18,218.456 2565,235.5C 2564.49,242.001 2566.99,246.834 2572.5,250C 2583.11,251.569 2593.77,251.903 2604.5,251C 2608.64,250.349 2612.14,248.515 2615,245.5C 2617.54,241.148 2619.2,236.481 2620,231.5C 2623.66,229.98 2625.16,231.313 2624.5,235.5C 2624.05,244.705 2622.55,253.705 2620,262.5C 2619.25,263.126 2618.42,263.626 2617.5,264C 2584.84,264.021 2552.17,263.688 2519.5,263C 2518.66,261.989 2518.33,260.822 2518.5,259.5C 2523.26,259.065 2527.92,258.232 2532.5,257C 2534.46,253.785 2535.63,250.285 2536,246.5C 2537.93,202.83 2537.93,159.163 2536,115.5C 2534.61,112.055 2532.11,109.889 2528.5,109C 2524.83,108.667 2521.17,108.333 2517.5,108C 2515.84,107.275 2515.34,106.108 2516,104.5C 2547.43,103.671 2578.93,103.171 2610.5,103C 2612.38,102.802 2614.05,102.302 2615.5,101.5 Z"/></g>
<g><path style="opacity:0.941" fill="#a60431" d="M 1176.5,103.5 C 1198.74,103.173 1220.91,103.506 1243,104.5C 1243.75,105.635 1243.58,106.635 1242.5,107.5C 1238.47,108.171 1234.47,109.004 1230.5,110C 1228.95,111.214 1227.78,112.714 1227,114.5C 1225.9,130.97 1225.4,147.47 1225.5,164C 1225.41,181.192 1225.91,198.358 1227,215.5C 1232.16,245.327 1249.66,257.827 1279.5,253C 1298.38,246.783 1308.22,233.616 1309,213.5C 1309.67,181.5 1309.67,149.5 1309,117.5C 1308.31,113.138 1305.81,110.304 1301.5,109C 1297.83,108.667 1294.17,108.333 1290.5,108C 1288.99,107.163 1288.49,105.996 1289,104.5C 1308.42,103.507 1327.92,103.174 1347.5,103.5C 1347.76,104.978 1347.43,106.311 1346.5,107.5C 1343.22,108.254 1339.89,108.754 1336.5,109C 1333.94,109.685 1332.11,111.185 1331,113.5C 1329.71,142.793 1329.04,172.127 1329,201.5C 1327.11,243.726 1305.11,265.393 1263,266.5C 1223.82,267.316 1202.16,248.316 1198,209.5C 1197.95,178.133 1197.29,146.799 1196,115.5C 1195.6,112.768 1194.1,110.935 1191.5,110C 1186.53,108.958 1181.53,108.124 1176.5,107.5C 1175.37,106.192 1175.37,104.858 1176.5,103.5 Z"/></g>
<g><path style="opacity:0.951" fill="#a60431" d="M 1572.5,103.5 C 1593.5,103.333 1614.5,103.5 1635.5,104C 1636.73,105.587 1636.39,106.921 1634.5,108C 1630.42,108.231 1626.42,108.898 1622.5,110C 1620.96,111.579 1619.79,113.413 1619,115.5C 1616.74,161.541 1617.08,207.541 1620,253.5C 1621.17,254.667 1622.33,255.833 1623.5,257C 1628.77,258.106 1634.1,258.773 1639.5,259C 1641.59,259.953 1641.93,261.286 1640.5,263C 1617.84,263.5 1595.17,263.667 1572.5,263.5C 1572.24,262.022 1572.57,260.689 1573.5,259.5C 1577.56,258.92 1581.56,258.087 1585.5,257C 1587.77,255.442 1588.93,253.276 1589,250.5C 1590.11,227.19 1590.61,203.856 1590.5,180.5C 1590.63,158.465 1590.13,136.465 1589,114.5C 1588.22,112.714 1587.05,111.214 1585.5,110C 1581.19,108.985 1576.86,108.152 1572.5,107.5C 1571.37,106.192 1571.37,104.858 1572.5,103.5 Z"/></g>
<g><path style="opacity:0.953" fill="#a60431" d="M 2270.5,103.5 C 2291.83,103.5 2313.17,103.5 2334.5,103.5C 2334.76,104.978 2334.43,106.311 2333.5,107.5C 2329.44,108.08 2325.44,108.913 2321.5,110C 2318.53,112.448 2317.03,115.614 2317,119.5C 2316.33,160.167 2316.33,200.833 2317,241.5C 2316.83,246.715 2318,251.548 2320.5,256C 2322.09,256.862 2323.75,257.529 2325.5,258C 2330.53,258.336 2335.53,258.836 2340.5,259.5C 2340.67,260.822 2340.34,261.989 2339.5,263C 2316.83,263.667 2294.17,263.667 2271.5,263C 2270.66,261.989 2270.33,260.822 2270.5,259.5C 2275.22,258.993 2279.89,258.16 2284.5,257C 2285.89,255.829 2286.73,254.329 2287,252.5C 2288.93,227.557 2289.76,202.557 2289.5,177.5C 2289.54,157.151 2289.04,136.817 2288,116.5C 2287.57,112.473 2285.41,109.973 2281.5,109C 2278.5,108.667 2275.5,108.333 2272.5,108C 2270.89,106.951 2270.23,105.451 2270.5,103.5 Z"/></g>
<g><path style="opacity:0.917" fill="#a60431" d="M 212.5,251.5 C 213.721,250.535 215.054,250.702 216.5,252C 236.333,265.167 256.167,278.333 276,291.5C 296.167,278 316.333,264.5 336.5,251C 337.332,250.312 337.998,250.479 338.5,251.5C 318.217,279.279 297.384,306.612 276,333.5C 254.663,306.326 233.496,278.993 212.5,251.5 Z"/></g>
<g><path style="opacity:0.917" fill="#a60431" d="M 503.5,250.5 C 524.561,263.783 545.395,277.45 566,291.5C 586.167,278 606.333,264.5 626.5,251C 627.332,250.312 627.998,250.479 628.5,251.5C 608.217,279.279 587.384,306.612 566,333.5C 544.234,306.563 523.401,278.896 503.5,250.5 Z"/></g>
<g><path style="opacity:0.916" fill="#a60431" d="M 777.5,251.5 C 778.721,250.535 780.054,250.702 781.5,252C 801.247,265.291 821.081,278.457 841,291.5C 861.081,277.876 881.247,264.376 901.5,251C 902.332,250.312 902.998,250.479 903.5,251.5C 882.973,279.233 861.973,306.566 840.5,333.5C 819.476,306.148 798.476,278.815 777.5,251.5 Z"/></g>
<g><path style="opacity:0.942" fill="#a60431" d="M 1217.5,351.5 C 1220.64,351.799 1222.81,353.466 1224,356.5C 1243.52,396.198 1263.02,435.864 1282.5,475.5C 1302.59,434.987 1322.42,394.32 1342,353.5C 1345.16,350.659 1347.49,351.326 1349,355.5C 1356.13,404.595 1363.79,453.595 1372,502.5C 1373.17,506.333 1375.67,508.833 1379.5,510C 1384.81,511.092 1390.15,512.092 1395.5,513C 1396.83,514 1396.83,515 1395.5,516C 1377.43,516.954 1359.43,516.454 1341.5,514.5C 1340.22,512.37 1340.72,510.704 1343,509.5C 1343.67,505.833 1343.67,502.167 1343,498.5C 1339.31,468.979 1334.97,439.645 1330,410.5C 1313.61,444.956 1296.94,479.289 1280,513.5C 1277.33,517.5 1274.67,517.5 1272,513.5C 1254.28,480.724 1237.61,447.391 1222,413.5C 1217.15,442.975 1212.98,472.641 1209.5,502.5C 1209.4,504.926 1210.07,507.093 1211.5,509C 1216.95,511.137 1222.62,512.303 1228.5,512.5C 1228.67,513.822 1228.34,514.989 1227.5,516C 1210.17,516.667 1192.83,516.667 1175.5,516C 1174.66,514.989 1174.33,513.822 1174.5,512.5C 1183.75,513.972 1189.58,510.306 1192,501.5C 1199.44,454.518 1206.77,407.518 1214,360.5C 1214.12,357.037 1215.28,354.037 1217.5,351.5 Z"/></g>
<g><path style="opacity:0.943" fill="#a60431" d="M 2808.5,351.5 C 2811.64,351.799 2813.81,353.466 2815,356.5C 2833.89,404.49 2853.55,452.156 2874,499.5C 2879.2,508.771 2887.2,513.104 2898,512.5C 2901.5,512 2905,511.5 2908.5,511C 2911.43,509.74 2913.26,507.573 2914,504.5C 2915.65,460.191 2916.65,415.858 2917,371.5C 2917.33,365.833 2917.67,360.167 2918,354.5C 2919.59,352.032 2921.42,351.866 2923.5,354C 2962.3,394.471 3001.47,434.638 3041,474.5C 3041.38,440.149 3040.71,405.815 3039,371.5C 3038.62,366.124 3035.79,362.958 3030.5,362C 3026.83,361.667 3023.17,361.333 3019.5,361C 3017.41,360.047 3017.07,358.714 3018.5,357C 3037.51,357.504 3056.51,357.337 3075.5,356.5C 3075.71,358.144 3075.38,359.644 3074.5,361C 3069.9,360.989 3065.57,361.989 3061.5,364C 3060.28,365.648 3059.45,367.481 3059,369.5C 3057.38,418.815 3056.04,468.148 3055,517.5C 3054.48,518.516 3053.65,519.182 3052.5,519.5C 3049.89,518.863 3047.56,517.696 3045.5,516C 3027.8,497.971 3009.8,480.304 2991.5,463C 2971.3,442.469 2951.47,421.636 2932,400.5C 2931.79,434.208 2932.79,467.874 2935,501.5C 2935.56,504.872 2937.06,507.705 2939.5,510C 2944.74,511.439 2950.07,512.272 2955.5,512.5C 2955.5,513.833 2955.5,515.167 2955.5,516.5C 2918.17,516.667 2880.83,516.5 2843.5,516C 2842.57,515.612 2841.91,514.945 2841.5,514C 2842.7,512.48 2844.2,511.313 2846,510.5C 2841.36,494.255 2835.69,478.255 2829,462.5C 2812.56,461.176 2796.06,461.176 2779.5,462.5C 2773.21,476.234 2768.21,490.4 2764.5,505C 2764.54,506.764 2764.88,508.431 2765.5,510C 2769.65,511.737 2773.98,512.737 2778.5,513C 2779.83,514 2779.83,515 2778.5,516C 2760.17,516.667 2741.83,516.667 2723.5,516C 2722.66,514.989 2722.33,513.822 2722.5,512.5C 2732.66,513.516 2740.49,509.849 2746,501.5C 2765.61,453.947 2784.94,406.28 2804,358.5C 2805.01,355.798 2806.51,353.465 2808.5,351.5 Z M 2803.5,397.5 C 2805.28,398.574 2806.45,400.24 2807,402.5C 2812.64,418.427 2818.47,434.26 2824.5,450C 2811.17,450.5 2797.84,450.667 2784.5,450.5C 2790.63,432.769 2796.97,415.102 2803.5,397.5 Z"/></g>
<g><path style="opacity:0.947" fill="#a60431" d="M 1537.5,353.5 C 1546.33,355.79 1555.33,356.957 1564.5,357C 1595.83,357.667 1627.17,357.667 1658.5,357C 1664.13,356.723 1669.63,355.889 1675,354.5C 1677.05,356.873 1677.88,359.706 1677.5,363C 1676.91,371.161 1676.41,379.327 1676,387.5C 1674.67,388.833 1673.33,388.833 1672,387.5C 1672.35,380.687 1669.52,375.854 1663.5,373C 1658.68,371.131 1653.68,370.131 1648.5,370C 1639.17,369.5 1629.84,369.334 1620.5,369.5C 1620.33,412.501 1620.5,455.501 1621,498.5C 1620.94,503.005 1622.44,506.839 1625.5,510C 1631.43,511.293 1637.43,512.126 1643.5,512.5C 1643.5,513.833 1643.5,515.167 1643.5,516.5C 1620.5,516.5 1597.5,516.5 1574.5,516.5C 1574.5,515.167 1574.5,513.833 1574.5,512.5C 1578.97,512.311 1583.3,511.477 1587.5,510C 1589.6,507.958 1590.77,505.458 1591,502.5C 1592.43,458.186 1592.93,413.853 1592.5,369.5C 1577.08,369.139 1561.75,369.972 1546.5,372C 1541.51,374.669 1538.35,378.836 1537,384.5C 1535.92,386.394 1534.59,386.727 1533,385.5C 1532.87,374.623 1534.37,363.956 1537.5,353.5 Z"/></g>
<g><path style="opacity:0.945" fill="#a60431" d="M 1929.5,353.5 C 1953.93,351.29 1976.6,356.456 1997.5,369C 2021.23,388.506 2031.07,413.673 2027,444.5C 2020.18,487.317 1995.35,512.15 1952.5,519C 1921.63,523.485 1895.13,514.985 1873,493.5C 1849.54,462.621 1846.21,429.621 1863,394.5C 1878.28,369.77 1900.45,356.103 1929.5,353.5 Z M 1928.5,364.5 C 1963.7,364.853 1985.53,382.187 1994,416.5C 1997.8,436 1997.14,455.333 1992,474.5C 1980.8,502.853 1960.3,513.353 1930.5,506C 1904.89,496.655 1889.73,478.488 1885,451.5C 1881.01,431.717 1882.51,412.384 1889.5,393.5C 1897.13,376.523 1910.13,366.856 1928.5,364.5 Z"/></g>
<g><path style="opacity:0.947" fill="#a60431" d="M 2265.5,353.5 C 2287.72,351.711 2308.72,355.877 2328.5,366C 2352.23,381.79 2363.9,404.123 2363.5,433C 2361.75,478.74 2338.75,507.074 2294.5,518C 2266.46,523.478 2240.8,518.145 2217.5,502C 2187.45,472.768 2180.29,438.602 2196,399.5C 2210.81,371.525 2233.97,356.192 2265.5,353.5 Z M 2263.5,364.5 C 2299.75,365.053 2321.91,383.053 2330,418.5C 2334.13,438.873 2332.79,458.873 2326,478.5C 2314.91,502.132 2296.41,511.632 2270.5,507C 2243.21,499.314 2226.71,481.481 2221,453.5C 2216.96,433.89 2217.96,414.556 2224,395.5C 2231.23,377.423 2244.39,367.09 2263.5,364.5 Z"/></g>
<g><path style="opacity:0.946" fill="#a60431" d="M 2606.5,353.5 C 2615.3,355.865 2624.3,357.032 2633.5,357C 2664.5,357.667 2695.5,357.667 2726.5,357C 2732.28,356.794 2737.94,355.961 2743.5,354.5C 2744.09,354.709 2744.59,355.043 2745,355.5C 2745.67,365.5 2745.67,375.5 2745,385.5C 2743.86,388.915 2742.19,389.249 2740,386.5C 2740.48,380.295 2737.98,375.795 2732.5,373C 2727.65,371.268 2722.65,370.268 2717.5,370C 2707.84,369.5 2698.17,369.334 2688.5,369.5C 2688.05,413.856 2688.55,458.189 2690,502.5C 2690.13,506.939 2692.3,509.772 2696.5,511C 2701.55,511.338 2706.55,512.005 2711.5,513C 2712.83,514 2712.83,515 2711.5,516C 2688.83,516.667 2666.17,516.667 2643.5,516C 2642.66,514.989 2642.33,513.822 2642.5,512.5C 2647.29,512.268 2651.96,511.435 2656.5,510C 2658.77,506.17 2659.93,502.003 2660,497.5C 2660.5,454.835 2660.67,412.168 2660.5,369.5C 2646.48,369.411 2632.48,369.911 2618.5,371C 2611.01,372.993 2606.34,377.826 2604.5,385.5C 2601.08,386.753 2599.75,385.42 2600.5,381.5C 2601.61,371.934 2603.61,362.601 2606.5,353.5 Z"/></g>
<g><path style="opacity:0.942" fill="#a60431" d="M 1507.5,354.5 C 1509.95,354.085 1511.28,355.085 1511.5,357.5C 1510.05,367.126 1508.88,376.793 1508,386.5C 1506.64,387.38 1505.14,387.714 1503.5,387.5C 1503.95,382.117 1502.61,377.283 1499.5,373C 1498.17,372.333 1496.83,371.667 1495.5,371C 1482.91,369.255 1470.24,368.421 1457.5,368.5C 1457.5,387.5 1457.5,406.5 1457.5,425.5C 1471.21,425.862 1484.87,425.362 1498.5,424C 1500.46,423.047 1502.12,421.713 1503.5,420C 1504.79,419.51 1506.13,419.343 1507.5,419.5C 1506.6,430.823 1505.77,442.156 1505,453.5C 1504.05,455.592 1502.71,455.925 1501,454.5C 1500.62,450.332 1499.62,446.332 1498,442.5C 1496.79,440.951 1495.29,439.785 1493.5,439C 1482.37,437.868 1471.2,437.035 1460,436.5C 1459.23,436.645 1458.56,436.978 1458,437.5C 1456.35,456.846 1456.35,476.18 1458,495.5C 1459.25,500.412 1462.41,503.245 1467.5,504C 1477.5,506 1487.5,506 1497.5,504C 1507.03,501.132 1511.87,494.632 1512,484.5C 1513.05,483.483 1514.22,483.316 1515.5,484C 1516.54,494.679 1515.37,505.179 1512,515.5C 1511.25,516.126 1510.42,516.626 1509.5,517C 1476.83,517.126 1444.17,516.793 1411.5,516C 1410.17,515 1410.17,514 1411.5,513C 1415.93,512.319 1420.26,511.319 1424.5,510C 1426.65,507.205 1427.81,504.039 1428,500.5C 1429.54,460.847 1429.87,421.18 1429,381.5C 1430.87,366.032 1424.03,359.199 1408.5,361C 1407.17,359.667 1407.17,358.333 1408.5,357C 1434.83,357.236 1461.16,357.236 1487.5,357C 1494.42,356.993 1501.09,356.16 1507.5,354.5 Z"/></g>
<g><path style="opacity:0.946" fill="#a60431" d="M 1694.5,356.5 C 1720.15,357.225 1745.82,357.391 1771.5,357C 1807.47,362.104 1819.64,381.938 1808,416.5C 1802.12,426.546 1794.62,435.212 1785.5,442.5C 1800.9,462.129 1816.9,481.295 1833.5,500C 1841.95,507.764 1851.95,511.931 1863.5,512.5C 1863.67,513.822 1863.34,514.989 1862.5,516C 1849.83,516.667 1837.17,516.667 1824.5,516C 1813.14,512.642 1803.97,506.142 1797,496.5C 1786.17,481.667 1775.33,466.833 1764.5,452C 1758.15,451.707 1751.81,451.207 1745.5,450.5C 1744.23,450.57 1743.06,450.903 1742,451.5C 1741.06,469.578 1741.73,487.578 1744,505.5C 1744.78,507.286 1745.95,508.786 1747.5,510C 1752.81,511.072 1758.14,512.072 1763.5,513C 1764.45,513.718 1764.62,514.551 1764,515.5C 1741.91,516.494 1719.74,516.827 1697.5,516.5C 1697.5,515.167 1697.5,513.833 1697.5,512.5C 1701.51,512.142 1705.51,511.642 1709.5,511C 1712.18,508.806 1713.68,505.973 1714,502.5C 1715.62,459.19 1715.95,415.857 1715,372.5C 1715.09,366.596 1712.26,363.096 1706.5,362C 1702.83,361.667 1699.17,361.333 1695.5,361C 1694.62,359.644 1694.29,358.144 1694.5,356.5 Z M 1744.5,367.5 C 1771.48,365.817 1785.48,378.484 1786.5,405.5C 1785.28,435.923 1770.45,446.257 1742,436.5C 1741.33,414.167 1741.33,391.833 1742,369.5C 1742.99,368.934 1743.83,368.267 1744.5,367.5 Z"/></g>
<g><path style="opacity:0.95" fill="#a60431" d="M 2050.5,356.5 C 2070.35,357.156 2090.18,357.156 2110,356.5C 2126.47,354.844 2141.64,358.344 2155.5,367C 2167.46,379.812 2170.63,394.646 2165,411.5C 2153.83,437.994 2134.33,448.494 2106.5,443C 2135.5,436.539 2146.33,418.706 2139,389.5C 2131.29,371.399 2117.96,364.399 2099,368.5C 2098.07,413.185 2098.4,457.852 2100,502.5C 2100.6,506.538 2102.77,509.371 2106.5,511C 2111.83,511.567 2117.17,512.067 2122.5,512.5C 2122.67,513.822 2122.34,514.989 2121.5,516C 2098.84,516.5 2076.17,516.667 2053.5,516.5C 2053.5,515.167 2053.5,513.833 2053.5,512.5C 2057.97,512.311 2062.3,511.477 2066.5,510C 2068.44,507.53 2069.6,504.696 2070,501.5C 2071.59,459.518 2071.92,417.518 2071,375.5C 2071.02,371.275 2069.85,367.442 2067.5,364C 2062.39,361.987 2057.05,360.987 2051.5,361C 2049.22,359.916 2048.88,358.416 2050.5,356.5 Z"/></g>
<g><path style="opacity:0.939" fill="#a60431" d="M 2387.5,356.5 C 2409.83,357.751 2432.16,357.751 2454.5,356.5C 2454.71,358.144 2454.38,359.644 2453.5,361C 2448.75,361.189 2444.08,361.855 2439.5,363C 2436.29,365.731 2434.79,369.231 2435,373.5C 2434.05,413.524 2434.39,453.524 2436,493.5C 2437.07,498.235 2439.9,501.402 2444.5,503C 2455.45,504.546 2466.45,504.879 2477.5,504C 2482.58,503.533 2486.75,501.366 2490,497.5C 2492.52,493.099 2494.36,488.432 2495.5,483.5C 2496.72,482.289 2497.89,482.289 2499,483.5C 2499.17,493.265 2498.17,502.932 2496,512.5C 2495.07,515.102 2493.23,516.602 2490.5,517C 2456.83,517.104 2423.17,516.771 2389.5,516C 2388.66,514.989 2388.33,513.822 2388.5,512.5C 2393.59,512.515 2398.42,511.515 2403,509.5C 2403.86,507.913 2404.53,506.246 2405,504.5C 2406.13,481.03 2406.63,457.53 2406.5,434C 2406.33,412.833 2406.17,391.667 2406,370.5C 2405.93,367.724 2404.77,365.558 2402.5,364C 2397.72,362.02 2392.72,361.02 2387.5,361C 2386.27,359.51 2386.27,358.01 2387.5,356.5 Z"/></g>
<g><path style="opacity:0.951" fill="#a60431" d="M 2518.5,356.5 C 2539.4,357.414 2560.24,357.747 2581,357.5C 2581.68,358.784 2581.52,359.951 2580.5,361C 2576.42,361.231 2572.42,361.898 2568.5,363C 2565.53,365.448 2564.03,368.614 2564,372.5C 2563.33,413.833 2563.33,455.167 2564,496.5C 2563.7,501.69 2565.2,506.19 2568.5,510C 2574.46,511.131 2580.46,512.131 2586.5,513C 2587.83,514 2587.83,515 2586.5,516C 2563.83,516.667 2541.17,516.667 2518.5,516C 2517.66,514.989 2517.33,513.822 2517.5,512.5C 2521.53,512.328 2525.53,511.828 2529.5,511C 2532.1,510.065 2533.6,508.232 2534,505.5C 2536.97,460.205 2537.3,414.872 2535,369.5C 2534.55,367.481 2533.72,365.648 2532.5,364C 2528.06,362.06 2523.39,361.06 2518.5,361C 2517.27,359.51 2517.27,358.01 2518.5,356.5 Z"/></g>
<g><path style="opacity:0.936" fill="#a60431" d="M 153.5,426.5 C 180.903,444.62 208.403,462.62 236,480.5C 263.926,462.909 291.593,444.909 319,426.5C 319.167,426.833 319.333,427.167 319.5,427.5C 292.186,464.142 264.519,500.475 236.5,536.5C 211.103,504.052 185.936,471.386 161,438.5C 158.228,434.612 155.728,430.612 153.5,426.5 Z"/></g>
<g><path style="opacity:0.936" fill="#a60431" d="M 482.5,426.5 C 510.174,444.66 538.007,462.66 566,480.5C 593.488,462.755 620.821,444.755 648,426.5C 648.167,427 648.333,427.5 648.5,428C 621.36,464.45 593.86,500.616 566,536.5C 537.449,500.407 509.615,463.74 482.5,426.5 Z"/></g>
<g><path style="opacity:0.936" fill="#a60431" d="M 797.5,426.5 C 825.229,444.451 852.729,462.784 880,481.5C 907.253,463.457 934.419,445.291 961.5,427C 962.332,426.312 962.998,426.479 963.5,427.5C 936.123,464.288 908.29,500.622 880,536.5C 852.433,501.045 825.1,465.378 798,429.5C 797.517,428.552 797.351,427.552 797.5,426.5 Z"/></g>
<g><path style="opacity:0.948" fill="#a60431" d="M 72.5,603.5 C 106.911,625.456 141.078,647.789 175,670.5C 208.236,648.797 241.402,626.964 274.5,605C 275.759,604.018 277.092,603.685 278.5,604C 244.578,649.711 210.078,694.878 175,739.5C 140.095,694.676 105.929,649.342 72.5,603.5 Z"/></g>
<g><path style="opacity:0.948" fill="#a60431" d="M 838.5,603.5 C 872.947,625.563 907.28,647.897 941.5,670.5C 974.5,648.667 1007.5,626.833 1040.5,605C 1041.76,604.018 1043.09,603.685 1044.5,604C 1010.52,649.475 976.186,694.641 941.5,739.5C 938.777,737.066 936.277,734.399 934,731.5C 901.925,688.938 870.092,646.271 838.5,603.5 Z"/></g>
<g><path style="opacity:0.907" fill="#a60431" d="M 1709.5,611.5 C 1711.75,611.916 1713.25,613.249 1714,615.5C 1725.39,643.947 1737.06,672.281 1749,700.5C 1752.41,706.455 1757.58,709.122 1764.5,708.5C 1764.5,709.5 1764.5,710.5 1764.5,711.5C 1752.83,711.5 1741.17,711.5 1729.5,711.5C 1729.7,709.362 1730.7,707.695 1732.5,706.5C 1728.93,697.277 1725.26,688.11 1721.5,679C 1711.83,678.333 1702.17,678.333 1692.5,679C 1688.71,687.044 1685.71,695.378 1683.5,704C 1683.83,705.167 1684.17,706.333 1684.5,707.5C 1686.75,708.374 1689.08,708.708 1691.5,708.5C 1691.5,709.5 1691.5,710.5 1691.5,711.5C 1678.09,711.944 1664.76,711.444 1651.5,710C 1646.41,706.917 1641.91,703.083 1638,698.5C 1631.71,690.088 1625.54,681.588 1619.5,673C 1615.16,672.248 1610.83,671.914 1606.5,672C 1605.98,672.561 1605.64,673.228 1605.5,674C 1606.3,683.799 1606.8,693.632 1607,703.5C 1607.47,704.931 1608.3,706.097 1609.5,707C 1612.76,708.043 1616.09,708.543 1619.5,708.5C 1619.5,709.5 1619.5,710.5 1619.5,711.5C 1606.16,711.667 1592.83,711.5 1579.5,711C 1579.04,710.586 1578.71,710.086 1578.5,709.5C 1581.63,708.815 1584.63,707.815 1587.5,706.5C 1588.1,705.205 1588.6,703.872 1589,702.5C 1589.67,675.833 1589.67,649.167 1589,622.5C 1588.53,621.069 1587.7,619.903 1586.5,619C 1583.08,618.483 1579.75,617.65 1576.5,616.5C 1576.67,616.167 1576.83,615.833 1577,615.5C 1592.76,614.343 1608.59,614.176 1624.5,615C 1643.04,616.915 1650.87,627.082 1648,645.5C 1644.78,653.927 1639.62,660.927 1632.5,666.5C 1642.27,679.107 1652.6,691.274 1663.5,703C 1665.01,703.85 1666.51,704.683 1668,705.5C 1670.12,703.968 1671.78,701.968 1673,699.5C 1684.5,669.82 1696.67,640.487 1709.5,611.5 Z M 1607.5,621.5 C 1623.81,620.476 1632.14,628.143 1632.5,644.5C 1631.49,663.068 1622.66,668.735 1606,661.5C 1605.33,648.833 1605.33,636.167 1606,623.5C 1606.72,622.956 1607.22,622.289 1607.5,621.5 Z M 1706.5,639.5 C 1711.07,649.871 1715.07,660.537 1718.5,671.5C 1710.83,671.5 1703.17,671.5 1695.5,671.5C 1699.17,660.833 1702.83,650.167 1706.5,639.5 Z"/></g>
<g><path style="opacity:0.912" fill="#a60431" d="M 1390.5,612.5 C 1433.88,611.706 1452.71,632.706 1447,675.5C 1440.43,697.733 1425.6,710.233 1402.5,713C 1380.39,715.756 1362.89,708.256 1350,690.5C 1339.39,670.231 1340.39,650.564 1353,631.5C 1363.09,620.208 1375.59,613.874 1390.5,612.5 Z M 1390.5,619.5 C 1412.9,621.731 1425.73,634.065 1429,656.5C 1430.52,668.191 1429.18,679.524 1425,690.5C 1415.32,705.504 1402.15,709.671 1385.5,703C 1371.52,694.899 1363.69,682.732 1362,666.5C 1360.33,654.495 1362.33,643.161 1368,632.5C 1373.52,624.657 1381.02,620.324 1390.5,619.5 Z"/></g>
<g><path style="opacity:0.911" fill="#a60431" d="M 1512.5,612.5 C 1526.6,612.812 1540.6,614.146 1554.5,616.5C 1553.85,625.152 1553.52,633.818 1553.5,642.5C 1552.32,642.719 1551.32,642.386 1550.5,641.5C 1548.33,630.496 1541.66,623.996 1530.5,622C 1514.11,617.14 1499.94,620.64 1488,632.5C 1477.38,652.394 1478.38,671.727 1491,690.5C 1503.46,704.074 1518.63,708.574 1536.5,704C 1537.65,692.91 1537.82,681.743 1537,670.5C 1536.5,668.667 1535.33,667.5 1533.5,667C 1530.85,666.503 1528.19,666.336 1525.5,666.5C 1525.5,665.5 1525.5,664.5 1525.5,663.5C 1538.85,663.167 1552.18,663.501 1565.5,664.5C 1565.29,665.086 1564.96,665.586 1564.5,666C 1562.11,666.287 1559.78,666.787 1557.5,667.5C 1556.81,668.025 1556.31,668.692 1556,669.5C 1555.01,682.151 1554.18,694.817 1553.5,707.5C 1531.79,715.587 1510.13,715.42 1488.5,707C 1466.75,694.792 1458.25,676.292 1463,651.5C 1467.72,632.442 1479.56,620.276 1498.5,615C 1503.31,614.197 1507.98,613.363 1512.5,612.5 Z"/></g>
<g><path style="opacity:0.908" fill="#a60431" d="M 1321.5,613.5 C 1322.83,613.5 1324.17,613.5 1325.5,613.5C 1324.77,620.158 1324.11,626.825 1323.5,633.5C 1322.5,633.5 1321.5,633.5 1320.5,633.5C 1320.62,629.69 1319.29,626.523 1316.5,624C 1308.57,622.637 1300.57,622.137 1292.5,622.5C 1292.18,633.748 1292.51,644.915 1293.5,656C 1303.9,657.231 1313.9,656.065 1323.5,652.5C 1322.72,659.819 1322.06,667.153 1321.5,674.5C 1320.5,674.5 1319.5,674.5 1318.5,674.5C 1318.99,670.431 1317.65,667.264 1314.5,665C 1307.25,663.609 1299.92,663.109 1292.5,663.5C 1292.33,674.505 1292.5,685.505 1293,696.5C 1293.16,698.676 1294,700.509 1295.5,702C 1303.03,704.898 1310.7,705.231 1318.5,703C 1322.69,700.788 1325.03,697.288 1325.5,692.5C 1326.32,691.614 1327.32,691.281 1328.5,691.5C 1328.66,698.221 1327.66,704.721 1325.5,711C 1305.17,711.5 1284.84,711.667 1264.5,711.5C 1264.5,710.5 1264.5,709.5 1264.5,708.5C 1271.52,709.577 1275.02,706.577 1275,699.5C 1275.67,674.167 1275.67,648.833 1275,623.5C 1274.89,621.152 1273.72,619.652 1271.5,619C 1268.57,618.047 1265.57,617.547 1262.5,617.5C 1262.5,616.5 1262.5,615.5 1262.5,614.5C 1282.34,614.83 1302.01,614.497 1321.5,613.5 Z"/></g>
<g><path style="opacity:0.923" fill="#a60431" d="M 1174.5,614.5 C 1188.84,614.333 1203.17,614.5 1217.5,615C 1237.09,618.341 1242.92,629.175 1235,647.5C 1232.5,650.667 1229.67,653.5 1226.5,656C 1236.63,659.797 1243.8,666.631 1248,676.5C 1250.74,695.184 1242.91,706.684 1224.5,711C 1208.5,711.5 1192.5,711.667 1176.5,711.5C 1176.5,710.5 1176.5,709.5 1176.5,708.5C 1179.27,708.579 1181.94,708.079 1184.5,707C 1185.19,705.933 1185.69,704.766 1186,703.5C 1187.58,677.526 1187.91,651.526 1187,625.5C 1186.77,623.22 1185.93,621.22 1184.5,619.5C 1181.29,618.198 1177.96,617.531 1174.5,617.5C 1174.5,616.5 1174.5,615.5 1174.5,614.5 Z M 1205.5,620.5 C 1217.51,621.285 1223.84,627.785 1224.5,640C 1223.13,652.721 1216.29,657.555 1204,654.5C 1203.83,649 1203.67,643.5 1203.5,638C 1203.55,631.925 1204.21,626.091 1205.5,620.5 Z M 1203.5,661.5 C 1221.32,661.814 1230.99,670.981 1232.5,689C 1230.27,703.119 1222.27,708.119 1208.5,704C 1207.07,703.535 1205.9,702.701 1205,701.5C 1203.56,688.24 1203.06,674.907 1203.5,661.5 Z"/></g>
<g><path style="opacity:0.913" fill="#a60431" d="M 1764.5,614.5 C 1786.53,614.106 1808.53,614.606 1830.5,616C 1855.96,620.789 1869.29,636.122 1870.5,662C 1868.37,690.795 1853.04,707.461 1824.5,712C 1805.16,712.247 1785.83,711.914 1766.5,711C 1766.04,710.586 1765.71,710.086 1765.5,709.5C 1768.63,708.815 1771.63,707.815 1774.5,706.5C 1775.1,705.205 1775.6,703.872 1776,702.5C 1776.67,675.833 1776.67,649.167 1776,622.5C 1775.53,621.069 1774.7,619.903 1773.5,619C 1770.08,618.483 1766.75,617.65 1763.5,616.5C 1763.86,615.817 1764.2,615.15 1764.5,614.5 Z M 1797.5,621.5 C 1838.43,621.03 1855.93,641.03 1850,681.5C 1845.78,695.044 1836.62,702.877 1822.5,705C 1816.5,705.667 1810.5,705.667 1804.5,705C 1800.43,704.556 1797.27,702.722 1795,699.5C 1793.3,673.834 1793.14,648.167 1794.5,622.5C 1795.79,622.737 1796.79,622.404 1797.5,621.5 Z"/></g>
</svg>
